# xmcd
#
# Track frame offsets: 
#        150
#        18767
#        38797
#        55087
#        68620
#        79850
#        99467
#        120012
#        134495
#        149775
#
# Disc length: 2212 seconds
#
# Revision: 2
# Processed by: cddbd v1.5.2PL0 Copyright (c) Steve Scherf et al.
# Submitted via: ExactAudioCopy v0.95a4
#
DISCID=7e08a20a
DTITLE=The Judds - River Of Time
DYEAR=1989
DGENRE=Country
TTITLE0=One Man Woman
TTITLE1=Young Love
TTITLE2=Not My Baby
TTITLE3=Let Me Tell You About Love
TTITLE4=Sleepless Nights
TTITLE5=Water Of Love
TTITLE6=River Of Time
TTITLE7=Cadillac Red
TTITLE8=Do I Dare
TTITLE9=Guardian Angel
EXTD=Year: 1989\n\n\n
EXTT0=
EXTT1=
EXTT2=
EXTT3=
EXTT4=
EXTT5=
EXTT6=
EXTT7=
EXTT8=
EXTT9=
PLAYORDER=
